<svg id="svg" version="1.1" xmlns="http://www.w3.org/2000/svg" xmlns:xlink="http://www.w3.org/1999/xlink" width="400" height="400" viewBox="0, 0, 400,400"><g id="svgg"><path id="path0" d="M63.600 193.400 L 63.600 333.600 100.000 333.600 L 136.400 333.600 136.400 255.100 L 136.400 176.601 214.512 254.712 L 292.624 332.823 318.118 332.815 L 343.612 332.807 343.630 307.303 L 343.647 281.800 266.024 204.144 C 223.331 161.433,188.400 126.378,188.400 126.244 C 188.400 126.110,223.410 126.000,266.200 126.000 L 344.000 126.000 344.000 89.600 L 344.000 53.200 203.800 53.200 L 63.600 53.200 63.600 193.400 " stroke="none" fill="#04fc44" fill-rule="evenodd"></path><path id="path1" d="M62.800 193.600 L 62.800 334.800 99.999 334.800 L 137.198 334.800 137.299 257.100 L 137.400 179.400 214.747 256.700 L 292.095 334.000 318.015 334.000 C 332.271 334.000,344.219 333.891,344.567 333.757 C 345.252 333.494,345.457 331.600,344.800 331.600 C 344.580 331.600,344.400 331.941,344.400 332.357 C 344.400 333.589,344.173 333.600,318.068 333.600 L 293.001 333.600 214.700 255.300 L 136.400 177.001 136.400 255.500 L 136.400 334.000 100.000 334.000 L 63.600 334.000 63.600 193.600 L 63.600 53.200 204.000 53.200 L 344.400 53.200 344.400 89.599 L 344.400 125.998 266.544 126.099 L 188.689 126.200 266.544 204.059 C 309.365 246.881,344.400 282.216,344.400 282.582 C 344.400 282.948,344.580 283.136,344.800 283.000 C 345.020 282.864,345.196 282.448,345.192 282.076 C 345.187 281.704,310.435 246.660,267.966 204.200 L 190.749 127.000 267.975 126.899 L 345.200 126.798 345.200 89.599 L 345.200 52.400 204.000 52.400 L 62.800 52.400 62.800 193.600 " stroke="none" fill="#3ba554" fill-rule="evenodd"></path><path id="path2" d="M214.800 255.300 L 292.999 333.600 318.400 333.503 L 343.800 333.406 318.400 333.301 L 293.000 333.196 214.800 255.098 L 136.600 177.000 214.800 255.300 M344.000 307.320 L 344.200 333.400 344.303 307.623 C 344.360 293.446,344.270 281.710,344.103 281.543 C 343.936 281.376,343.890 292.976,344.000 307.320 " stroke="none" fill="#14e44c" fill-rule="evenodd"></path><path id="path3" d="M344.192 89.600 C 344.192 109.730,344.240 117.965,344.300 107.900 C 344.359 97.835,344.359 81.365,344.300 71.300 C 344.240 61.235,344.192 69.470,344.192 89.600 M343.788 307.400 C 343.788 321.260,343.839 326.872,343.900 319.871 C 343.961 312.870,343.961 301.530,343.900 294.671 C 343.838 287.812,343.788 293.540,343.788 307.400 M305.900 333.100 C 312.775 333.161,324.025 333.161,330.900 333.100 C 337.775 333.038,332.150 332.988,318.400 332.988 C 304.650 332.988,299.025 333.038,305.900 333.100 M81.870 333.900 C 91.808 333.959,108.188 333.959,118.270 333.900 C 128.351 333.840,120.220 333.792,100.200 333.792 C 80.180 333.792,71.931 333.840,81.870 333.900 " stroke="none" fill="#0cf44b" fill-rule="evenodd"></path><path id="path4" d="" stroke="none" fill="#08fc44" fill-rule="evenodd"></path></g></svg>